<svg width="124" height="82" viewBox="0 0 124 82" fill="none" xmlns="http://www.w3.org/2000/svg">
<path d="M98.6991 31.7109C96.7917 31.7109 95.112 32.9779 94.5951 34.8169L87.3039 60.6364C86.7871 62.4569 85.1319 63.7239 83.2368 63.7423L20.5569 64.3205C10.9953 64.4865 2.95341 74.2226 0 81.7508H101.856C103.812 81.7508 105.517 80.4223 105.997 78.5218L109.614 64.0867H109.762L113.263 51.6937C116.087 41.6992 108.808 31.7109 98.6991 31.7109Z" fill="#151F43"/>
<path d="M123.718 0H21.9027C19.9466 0 18.2427 1.32849 17.7629 3.22897L14.1459 17.664H13.9983L10.4982 30.0571C7.6748 40.0515 14.9517 50.0398 25.0583 50.0398C26.9652 50.0398 28.6445 48.7728 29.1612 46.9339L36.4504 21.1144C36.9671 19.2939 38.6218 18.0269 40.5164 18.0084L103.179 17.4303C112.738 17.2642 120.809 7.52811 123.762 0H123.712L123.718 0Z" fill="#151F43"/>
<path d="M48.2681 31.7109C48.9943 31.7109 63.689 31.7109 63.689 31.7109C61.6501 32.2681 58.882 35.3328 56.6676 39.0135H51.9617C51.9617 39.0135 47.5419 31.7109 48.2681 31.7109Z" fill="#9C4FCF"/>
<mask id="path-4-inside-1_709_25" fill="white">
<path d="M66.849 41.4836C63.3098 45.4365 61.2748 52.1213 61.2747 55.3923C61.2747 55.3923 55.1849 46.1982 56.0153 46.477C57.1226 41.1833 62.382 33.1038 66.5342 31.7109H80.9284C78.7847 36.4185 77.0525 37.9498 74.2831 38.5412C71.5858 39.1171 68.6887 39.4287 66.849 41.4836Z"/>
</mask>
<path d="M61.2747 55.3923L-191.338 222.712L364.264 1061.54L364.275 55.3956L61.2747 55.3923ZM66.849 41.4836L-158.892 -160.63L-158.892 -160.63L66.849 41.4836ZM74.2831 38.5412L137.551 334.862L137.551 334.862L74.2831 38.5412ZM80.9284 31.7109L356.683 157.283L551.845 -271.289H80.9284V31.7109ZM66.5342 31.7109V-271.289H17.0681L-29.8297 -255.557L66.5342 31.7109ZM56.0153 46.477L-40.4257 333.719L282.79 442.238L352.597 108.514L56.0153 46.477ZM61.2747 55.3923L364.275 55.3956C364.274 82.627 360.479 103.949 357.922 115.881C354.992 129.557 351.222 142.16 346.953 153.713C339.815 173.032 324.529 207.925 292.591 243.597L66.849 41.4836L-158.892 -160.63C-194.37 -121.005 -212.443 -80.7927 -221.484 -56.3255C-229.543 -34.5148 -241.725 5.25039 -241.725 55.3891L61.2747 55.3923ZM74.2831 38.5412L137.551 334.862C186.006 324.516 242.816 300.108 291.891 251.126C331.22 211.871 350.244 171.422 356.683 157.283L80.9284 31.7109L-194.826 -93.8614C-190.531 -103.293 -173.445 -140.622 -136.21 -177.786C-89.2298 -224.678 -34.6708 -248.025 11.0148 -257.78L74.2831 38.5412ZM80.9284 31.7109V-271.289H66.5342V31.7109V334.711H80.9284V31.7109ZM66.5342 31.7109L-29.8297 -255.557C-90.0443 -235.358 -128.698 -201.624 -145.025 -186.166C-164.826 -167.419 -179.239 -148.96 -189.185 -134.56C-205.803 -110.498 -229.213 -69.8367 -240.566 -15.5597L56.0153 46.477L352.597 108.514C342.351 157.497 322.124 191.472 309.451 209.822C301.478 221.366 289.227 237.213 271.614 253.889C257.476 267.275 221.037 299.477 162.898 318.979L66.5342 31.7109ZM56.0153 46.477L152.456 -240.765C122.391 -250.86 -0.228126 -286.266 -120.86 -199.58C-239.592 -114.26 -246.428 10.9307 -247.005 40.6455C-247.805 81.8313 -239.83 113.316 -236.965 124.143C-233.134 138.622 -228.988 149.906 -226.54 156.227C-218.439 177.14 -209.452 192.967 -208.783 194.179C-204.019 202.811 -199.557 209.909 -198.414 211.733C-196.452 214.864 -194.702 217.57 -193.644 219.197C-193.065 220.087 -192.566 220.849 -192.183 221.431C-191.989 221.726 -191.82 221.983 -191.679 222.196C-191.608 222.303 -191.544 222.4 -191.487 222.486C-191.459 222.529 -191.432 222.57 -191.407 222.607C-191.395 222.626 -191.383 222.644 -191.371 222.662C-191.366 222.67 -191.36 222.679 -191.354 222.687C-191.352 222.691 -191.347 222.698 -191.346 222.7C-191.342 222.706 -191.338 222.712 61.2747 55.3923C313.887 -111.927 313.891 -111.921 313.895 -111.915C313.897 -111.913 313.901 -111.907 313.903 -111.903C313.908 -111.896 313.914 -111.888 313.919 -111.88C313.929 -111.865 313.938 -111.85 313.948 -111.836C313.967 -111.807 313.985 -111.78 314.002 -111.754C314.036 -111.703 314.066 -111.658 314.092 -111.618C314.144 -111.539 314.183 -111.479 314.212 -111.436C314.265 -111.355 314.295 -111.309 314.316 -111.277C314.333 -111.251 314.384 -111.172 314.473 -111.033C314.552 -110.911 314.763 -110.58 315.081 -110.073C315.362 -109.624 316.002 -108.598 316.87 -107.158C317.558 -106.016 319.419 -102.91 321.757 -98.674C321.972 -98.2852 330.619 -83.1309 338.546 -62.6666C340.951 -56.4579 345.063 -45.2724 348.872 -30.8772C351.715 -20.1338 359.68 11.283 358.88 52.4168C358.304 82.0796 351.481 207.234 232.775 292.536C112.168 379.204 -10.4123 343.796 -40.4257 333.719L56.0153 46.477ZM66.849 41.4836L292.591 243.597C243.707 298.195 188.36 319.929 161.275 328.46C147.921 332.667 137.368 334.889 134.342 335.523C132.772 335.852 131.339 336.133 132.237 335.954C132.488 335.905 134.809 335.448 137.551 334.862L74.2831 38.5412L11.0148 -257.78C13.0828 -258.221 14.723 -258.543 14.2923 -258.457C14.2529 -258.449 14.2559 -258.45 14.1779 -258.434C14.1233 -258.424 14.0412 -258.407 13.9481 -258.389C13.7645 -258.352 13.4796 -258.296 13.1421 -258.228C12.4806 -258.095 11.4224 -257.881 10.1431 -257.613C5.75757 -256.695 -6.14029 -254.158 -20.7857 -249.545C-50.454 -240.2 -108.169 -217.283 -158.892 -160.63L66.849 41.4836Z" fill="#9C4FCF" mask="url(#path-4-inside-1_709_25)"/>
</svg>
